M48
METRIC,LZ,000.000
;FILE_FORMAT=3:3
;TYPE=PLATED
;Layer: PTH_Through
;EasyEDA v6.5.5, 2022-06-09 14:01:39
;0642bc9331b94787885f2cc059754cc5,5a628b76fac64d3cb101ae6d552a3bac,10
;Gerber Generator version 0.2
;Holesize 1 = 0.915 mm
T01C0.915
;Holesize 2 = 1.200 mm
T02C1.200
%
G05
G90
T01
X021536Y083756
X018996Y083756
X016456Y083756
X013916Y083756
X013843Y071200
X016383Y071200
X018923Y071200
X021463Y071200
T02
X044861Y071658
X042321Y071658
X039781Y071658
X037241Y071658
X034701Y071658
X032161Y071658
X029621Y071658
X027081Y071658
X027051Y083298
X029591Y083298
X032131Y083298
X034671Y083298
X037211Y083298
X039751Y083298
X042291Y083298
X044831Y083298
M30
