G04 Layer: BottomSolderMaskLayer*
G04 EasyEDA v6.5.5, 2022-06-09 14:01:39*
G04 0642bc9331b94787885f2cc059754cc5,5a628b76fac64d3cb101ae6d552a3bac,10*
G04 Gerber Generator version 0.2*
G04 Scale: 100 percent, Rotated: No, Reflected: No *
G04 Dimensions in millimeters *
G04 leading zeros omitted , absolute positions ,4 integer and 5 decimal *
%FSLAX45Y45*%
%MOMM*%

%ADD18C,1.6002*%
%ADD20C,1.9016*%

%LPD*%
D18*
G01*
X2153615Y8375596D03*
G01*
X1899615Y8375596D03*
G01*
X1645615Y8375596D03*
G01*
X1391615Y8375596D03*
G36*
X1309370Y7039863D02*
G01*
X1309370Y7039988D01*
X1307845Y7040242D01*
X1306321Y7041004D01*
X1305305Y7042020D01*
X1304544Y7043544D01*
X1304289Y7045068D01*
X1304289Y7194928D01*
X1304544Y7196452D01*
X1305305Y7197976D01*
X1306321Y7198992D01*
X1307845Y7199754D01*
X1309370Y7200008D01*
X1309370Y7199884D01*
X1459229Y7199884D01*
X1459229Y7200008D01*
X1460754Y7199754D01*
X1462278Y7198992D01*
X1463294Y7197976D01*
X1464055Y7196452D01*
X1464310Y7194928D01*
X1464310Y7045068D01*
X1464055Y7043544D01*
X1463294Y7042020D01*
X1462278Y7041004D01*
X1460754Y7040242D01*
X1459229Y7039988D01*
X1459229Y7039863D01*
G37*
G01*
X1638300Y7119998D03*
G01*
X1892300Y7119998D03*
G01*
X2146300Y7119998D03*
D20*
G01*
X4486097Y7165797D03*
G01*
X4232097Y7165797D03*
G01*
X3978097Y7165797D03*
G01*
X3724097Y7165797D03*
G01*
X3470097Y7165797D03*
G01*
X3216097Y7165797D03*
G01*
X2962097Y7165797D03*
G36*
X2617977Y7070597D02*
G01*
X2618097Y7070722D01*
X2616573Y7070976D01*
X2615049Y7071738D01*
X2614033Y7072754D01*
X2613271Y7074278D01*
X2613017Y7075802D01*
X2612897Y7075678D01*
X2612897Y7255763D01*
X2613017Y7255802D01*
X2613271Y7257326D01*
X2614033Y7258850D01*
X2615049Y7259866D01*
X2616573Y7260628D01*
X2618097Y7260882D01*
X2617977Y7260844D01*
X2798063Y7260844D01*
X2798097Y7260882D01*
X2799621Y7260628D01*
X2801145Y7259866D01*
X2802161Y7258850D01*
X2802923Y7257326D01*
X2803177Y7255802D01*
X2803143Y7255763D01*
X2803143Y7075678D01*
X2803177Y7075802D01*
X2802923Y7074278D01*
X2802161Y7072754D01*
X2801145Y7071738D01*
X2799621Y7070976D01*
X2798097Y7070722D01*
X2798063Y7070597D01*
G37*
G36*
X2615184Y8234679D02*
G01*
X2615100Y8234718D01*
X2613576Y8234972D01*
X2612052Y8235734D01*
X2611036Y8236750D01*
X2610274Y8238274D01*
X2610020Y8239798D01*
X2610104Y8239760D01*
X2610104Y8419845D01*
X2610020Y8419797D01*
X2610274Y8421321D01*
X2611036Y8422845D01*
X2612052Y8423861D01*
X2613576Y8424623D01*
X2615100Y8424877D01*
X2615184Y8424926D01*
X2795015Y8424926D01*
X2795099Y8424877D01*
X2796623Y8424623D01*
X2798147Y8423861D01*
X2799163Y8422845D01*
X2799925Y8421321D01*
X2800179Y8419797D01*
X2800095Y8419845D01*
X2800095Y8239760D01*
X2800179Y8239798D01*
X2799925Y8238274D01*
X2799163Y8236750D01*
X2798147Y8235734D01*
X2796623Y8234972D01*
X2795099Y8234718D01*
X2795015Y8234679D01*
G37*
G01*
X2959100Y8329803D03*
G01*
X3213100Y8329803D03*
G01*
X3467100Y8329803D03*
G01*
X3721100Y8329803D03*
G01*
X3975100Y8329803D03*
G01*
X4229100Y8329803D03*
G01*
X4483100Y8329803D03*
M02*
