G04 Layer: TopLayer*
G04 EasyEDA v6.5.5, 2022-06-09 14:01:39*
G04 0642bc9331b94787885f2cc059754cc5,5a628b76fac64d3cb101ae6d552a3bac,10*
G04 Gerber Generator version 0.2*
G04 Scale: 100 percent, Rotated: No, Reflected: No *
G04 Dimensions in millimeters *
G04 leading zeros omitted , absolute positions ,4 integer and 5 decimal *
%FSLAX45Y45*%
%MOMM*%

%ADD11C,0.5000*%
%ADD12C,1.4986*%
%ADD14C,1.8000*%
%ADD15R,1.8000X1.8000*%

%LPD*%
G36*
X1052068Y6883908D02*
G01*
X1048156Y6884670D01*
X1044905Y6886905D01*
X1042669Y6890156D01*
X1041908Y6894068D01*
X1041908Y8599932D01*
X1042669Y8603843D01*
X1044905Y8607094D01*
X1048156Y8609330D01*
X1052068Y8610092D01*
X4789932Y8610092D01*
X4793843Y8609330D01*
X4797094Y8607094D01*
X4799330Y8603843D01*
X4800092Y8599932D01*
X4800092Y6894068D01*
X4799330Y6890156D01*
X4797094Y6886905D01*
X4793843Y6884670D01*
X4789932Y6883908D01*
G37*

%LPC*%
G36*
X1544777Y6908698D02*
G01*
X3009696Y6908698D01*
X3014319Y6908901D01*
X3018739Y6909460D01*
X3023057Y6910425D01*
X3027324Y6911746D01*
X3031388Y6913473D01*
X3035350Y6915505D01*
X3039110Y6917893D01*
X3042615Y6920585D01*
X3046069Y6923735D01*
X3174288Y7052005D01*
X3177133Y7053986D01*
X3180486Y7054900D01*
X3183991Y7054646D01*
X3194405Y7051954D01*
X3208832Y7050125D01*
X3223361Y7050125D01*
X3237788Y7051954D01*
X3251911Y7055561D01*
X3265424Y7060946D01*
X3278174Y7067956D01*
X3289960Y7076490D01*
X3300577Y7086447D01*
X3309874Y7097674D01*
X3317646Y7109968D01*
X3323844Y7123125D01*
X3328365Y7136993D01*
X3331057Y7151268D01*
X3331972Y7165797D01*
X3331057Y7180325D01*
X3328365Y7194600D01*
X3323844Y7208469D01*
X3320491Y7215631D01*
X3319526Y7219543D01*
X3320135Y7223556D01*
X3322269Y7226960D01*
X3325571Y7229297D01*
X3329533Y7230109D01*
X3333496Y7229398D01*
X3336848Y7227163D01*
X3356254Y7207707D01*
X3358387Y7204659D01*
X3359251Y7201052D01*
X3358743Y7197394D01*
X3357829Y7194600D01*
X3355136Y7180325D01*
X3354222Y7165797D01*
X3355136Y7151268D01*
X3357829Y7136993D01*
X3362350Y7123125D01*
X3368548Y7109968D01*
X3376320Y7097674D01*
X3385616Y7086447D01*
X3396234Y7076490D01*
X3408019Y7067956D01*
X3420770Y7060946D01*
X3434283Y7055561D01*
X3448405Y7051954D01*
X3462832Y7050125D01*
X3477361Y7050125D01*
X3491788Y7051954D01*
X3505911Y7055561D01*
X3519424Y7060946D01*
X3532174Y7067956D01*
X3543960Y7076490D01*
X3554577Y7086447D01*
X3563874Y7097674D01*
X3571646Y7109968D01*
X3577844Y7123125D01*
X3582365Y7136993D01*
X3585057Y7151268D01*
X3585972Y7165797D01*
X3585057Y7180325D01*
X3582365Y7194600D01*
X3577844Y7208469D01*
X3571646Y7221626D01*
X3563874Y7233920D01*
X3554577Y7245146D01*
X3543960Y7255103D01*
X3532174Y7263638D01*
X3519424Y7270648D01*
X3505911Y7276033D01*
X3491788Y7279640D01*
X3477361Y7281468D01*
X3462832Y7281468D01*
X3448405Y7279640D01*
X3438042Y7276998D01*
X3434587Y7276693D01*
X3431184Y7277658D01*
X3428339Y7279640D01*
X2466898Y8241131D01*
X2464663Y8244382D01*
X2463901Y8248294D01*
X2463901Y8445296D01*
X2463698Y8449919D01*
X2463139Y8454339D01*
X2462174Y8458657D01*
X2460853Y8462924D01*
X2459126Y8466988D01*
X2457094Y8470950D01*
X2454706Y8474710D01*
X2452014Y8478215D01*
X2448864Y8481669D01*
X2360269Y8570264D01*
X2356815Y8573414D01*
X2353310Y8576106D01*
X2349550Y8578494D01*
X2345588Y8580526D01*
X2341524Y8582253D01*
X2337257Y8583574D01*
X2332939Y8584539D01*
X2328519Y8585098D01*
X2323896Y8585301D01*
X1550619Y8585301D01*
X1545996Y8585098D01*
X1541576Y8584539D01*
X1537258Y8583574D01*
X1532991Y8582253D01*
X1528927Y8580526D01*
X1524965Y8578494D01*
X1521206Y8576106D01*
X1517700Y8573414D01*
X1514246Y8570264D01*
X1420977Y8476996D01*
X1418183Y8475014D01*
X1414881Y8474049D01*
X1411478Y8474252D01*
X1408379Y8475014D01*
X1394968Y8476335D01*
X1381506Y8475929D01*
X1368247Y8473643D01*
X1355394Y8469680D01*
X1343152Y8463991D01*
X1331823Y8456777D01*
X1321511Y8448090D01*
X1312468Y8438083D01*
X1304848Y8426958D01*
X1298803Y8414969D01*
X1294384Y8402218D01*
X1291691Y8389061D01*
X1290777Y8375599D01*
X1291691Y8362137D01*
X1294384Y8348980D01*
X1298803Y8336229D01*
X1304848Y8324240D01*
X1312468Y8313115D01*
X1321511Y8303107D01*
X1331823Y8294420D01*
X1343152Y8287207D01*
X1355394Y8281517D01*
X1368247Y8277555D01*
X1381506Y8275269D01*
X1394968Y8274862D01*
X1408379Y8276183D01*
X1421485Y8279333D01*
X1434033Y8284159D01*
X1445869Y8290610D01*
X1456690Y8298586D01*
X1466392Y8307984D01*
X1474724Y8318550D01*
X1481582Y8330133D01*
X1486865Y8342528D01*
X1490421Y8355533D01*
X1492199Y8368842D01*
X1492199Y8382304D01*
X1490268Y8396579D01*
X1490319Y8399678D01*
X1491284Y8402624D01*
X1493113Y8405114D01*
X1568551Y8480501D01*
X1571802Y8482736D01*
X1575714Y8483498D01*
X1593138Y8483498D01*
X1596948Y8482736D01*
X1600200Y8480602D01*
X1602435Y8477402D01*
X1603248Y8473592D01*
X1602587Y8469731D01*
X1600555Y8466429D01*
X1597152Y8463991D01*
X1585823Y8456777D01*
X1575511Y8448090D01*
X1566468Y8438083D01*
X1558848Y8426958D01*
X1552803Y8414969D01*
X1548384Y8402218D01*
X1545691Y8389061D01*
X1544777Y8375599D01*
X1545691Y8362137D01*
X1548384Y8348980D01*
X1552803Y8336229D01*
X1558848Y8324240D01*
X1566468Y8313115D01*
X1575511Y8303107D01*
X1585823Y8294420D01*
X1597152Y8287207D01*
X1609394Y8281517D01*
X1622247Y8277555D01*
X1635506Y8275269D01*
X1648968Y8274862D01*
X1662379Y8276183D01*
X1675485Y8279333D01*
X1688033Y8284159D01*
X1699869Y8290610D01*
X1710689Y8298586D01*
X1720392Y8307984D01*
X1728724Y8318550D01*
X1735582Y8330133D01*
X1740865Y8342528D01*
X1744421Y8355533D01*
X1746199Y8368842D01*
X1746199Y8382355D01*
X1744421Y8395665D01*
X1740865Y8408670D01*
X1735582Y8421065D01*
X1728724Y8432647D01*
X1720392Y8443214D01*
X1710689Y8452612D01*
X1699869Y8460587D01*
X1692859Y8464397D01*
X1689506Y8467344D01*
X1687728Y8471408D01*
X1687880Y8475827D01*
X1689912Y8479790D01*
X1693418Y8482533D01*
X1697736Y8483498D01*
X1847138Y8483498D01*
X1850948Y8482736D01*
X1854200Y8480602D01*
X1856587Y8477199D01*
X1858772Y8480501D01*
X1862074Y8482736D01*
X1865934Y8483498D01*
X1933244Y8483498D01*
X1937156Y8482736D01*
X1940458Y8480501D01*
X1942592Y8477300D01*
X1943912Y8479790D01*
X1947418Y8482533D01*
X1951736Y8483498D01*
X2101138Y8483498D01*
X2104948Y8482736D01*
X2108200Y8480602D01*
X2110435Y8477402D01*
X2111298Y8473592D01*
X2110638Y8469731D01*
X2108555Y8466429D01*
X2105152Y8463991D01*
X2093823Y8456777D01*
X2083511Y8448040D01*
X2074519Y8438083D01*
X2066848Y8426958D01*
X2060803Y8414969D01*
X2056384Y8402218D01*
X2053691Y8389010D01*
X2052777Y8375599D01*
X2053691Y8362137D01*
X2056384Y8348980D01*
X2060803Y8336229D01*
X2066848Y8324240D01*
X2074519Y8313115D01*
X2083511Y8303107D01*
X2093823Y8294420D01*
X2098040Y8291728D01*
X2100580Y8289442D01*
X2102205Y8286496D01*
X2102764Y8283143D01*
X2102764Y8209737D01*
X2102967Y8205114D01*
X2103526Y8200694D01*
X2104491Y8196376D01*
X2105812Y8192109D01*
X2107539Y8188045D01*
X2109571Y8184083D01*
X2111959Y8180324D01*
X2114651Y8176818D01*
X2117801Y8173364D01*
X2654249Y7636916D01*
X2656484Y7633665D01*
X2657246Y7629753D01*
X2657246Y7291882D01*
X2656484Y7287971D01*
X2654249Y7284669D01*
X2650947Y7282484D01*
X2647086Y7281722D01*
X2618689Y7281722D01*
X2612339Y7281011D01*
X2606903Y7279081D01*
X2601976Y7275982D01*
X2597912Y7271918D01*
X2594813Y7266990D01*
X2592882Y7261555D01*
X2592171Y7255256D01*
X2592171Y7076389D01*
X2592882Y7070039D01*
X2594813Y7064603D01*
X2597912Y7059675D01*
X2601976Y7055612D01*
X2606903Y7052513D01*
X2612339Y7050582D01*
X2618689Y7049871D01*
X2797505Y7049871D01*
X2803855Y7050582D01*
X2809290Y7052513D01*
X2814218Y7055612D01*
X2818282Y7059675D01*
X2821381Y7064603D01*
X2823311Y7070039D01*
X2824022Y7076389D01*
X2824022Y7255256D01*
X2823311Y7261555D01*
X2821381Y7266990D01*
X2818282Y7271918D01*
X2814218Y7275982D01*
X2809290Y7279081D01*
X2803855Y7281011D01*
X2797505Y7281722D01*
X2769209Y7281722D01*
X2765348Y7282484D01*
X2762046Y7284669D01*
X2759811Y7287971D01*
X2759049Y7291882D01*
X2759049Y7654848D01*
X2758846Y7659471D01*
X2758287Y7663891D01*
X2757322Y7668209D01*
X2756001Y7672476D01*
X2754274Y7676540D01*
X2752242Y7680502D01*
X2749854Y7684262D01*
X2747162Y7687767D01*
X2744012Y7691221D01*
X2207564Y8227669D01*
X2205329Y8230920D01*
X2204567Y8234832D01*
X2204567Y8283041D01*
X2205075Y8286191D01*
X2206498Y8288985D01*
X2208682Y8291220D01*
X2218690Y8298586D01*
X2228392Y8307984D01*
X2236724Y8318550D01*
X2243582Y8330133D01*
X2248865Y8342528D01*
X2252421Y8355533D01*
X2254199Y8368842D01*
X2254199Y8382355D01*
X2252421Y8395665D01*
X2248865Y8408670D01*
X2243582Y8421065D01*
X2236724Y8432647D01*
X2228392Y8443214D01*
X2218690Y8452561D01*
X2207869Y8460587D01*
X2200859Y8464397D01*
X2197506Y8467344D01*
X2195728Y8471408D01*
X2195880Y8475827D01*
X2197912Y8479790D01*
X2201418Y8482533D01*
X2205736Y8483498D01*
X2298801Y8483498D01*
X2302713Y8482736D01*
X2305964Y8480501D01*
X2359101Y8427364D01*
X2361336Y8424113D01*
X2362098Y8420201D01*
X2362098Y8223199D01*
X2362301Y8218576D01*
X2362860Y8214156D01*
X2363825Y8209838D01*
X2365146Y8205571D01*
X2366873Y8201507D01*
X2368905Y8197545D01*
X2371293Y8193786D01*
X2373985Y8190280D01*
X2377135Y8186826D01*
X3276955Y7287056D01*
X3279140Y7283805D01*
X3279901Y7279944D01*
X3279140Y7276033D01*
X3277006Y7272781D01*
X3273755Y7270546D01*
X3269894Y7269734D01*
X3266033Y7270445D01*
X3251911Y7276033D01*
X3237788Y7279640D01*
X3223361Y7281468D01*
X3208832Y7281468D01*
X3194405Y7279640D01*
X3180283Y7276033D01*
X3166770Y7270648D01*
X3154019Y7263638D01*
X3142234Y7255103D01*
X3131616Y7245146D01*
X3122320Y7233920D01*
X3114548Y7221626D01*
X3108350Y7208469D01*
X3103829Y7194600D01*
X3101136Y7180325D01*
X3100222Y7165797D01*
X3101136Y7151268D01*
X3103829Y7136993D01*
X3104743Y7134250D01*
X3105200Y7130592D01*
X3104337Y7126986D01*
X3102254Y7123938D01*
X3082899Y7104634D01*
X3079546Y7102398D01*
X3075584Y7101636D01*
X3071672Y7102500D01*
X3068370Y7104837D01*
X3066237Y7108240D01*
X3065576Y7112203D01*
X3066135Y7114438D01*
X3013456Y7114438D01*
X3013456Y7061606D01*
X3017774Y7061606D01*
X3021685Y7059777D01*
X3024530Y7056526D01*
X3025749Y7052411D01*
X3025140Y7048093D01*
X3022803Y7044486D01*
X2991764Y7013498D01*
X2988513Y7011263D01*
X2984601Y7010501D01*
X2195372Y7010501D01*
X2191512Y7011263D01*
X2188260Y7013397D01*
X2186025Y7016597D01*
X2185212Y7020407D01*
X2185873Y7024268D01*
X2187905Y7027570D01*
X2191054Y7029907D01*
X2194763Y7031583D01*
X2206091Y7038848D01*
X2216404Y7047534D01*
X2225395Y7057542D01*
X2233066Y7068616D01*
X2239111Y7080656D01*
X2243531Y7093356D01*
X2246223Y7106564D01*
X2247138Y7119975D01*
X2246223Y7133437D01*
X2243531Y7146645D01*
X2239111Y7159345D01*
X2233066Y7171385D01*
X2225395Y7182459D01*
X2216404Y7192467D01*
X2206091Y7201153D01*
X2194763Y7208418D01*
X2182520Y7214057D01*
X2169668Y7218070D01*
X2156409Y7220305D01*
X2142947Y7220762D01*
X2129536Y7219391D01*
X2116429Y7216292D01*
X2103882Y7211466D01*
X2092045Y7204964D01*
X2081225Y7196988D01*
X2071522Y7187641D01*
X2063191Y7177074D01*
X2056333Y7165492D01*
X2051050Y7153046D01*
X2047493Y7140092D01*
X2045716Y7126731D01*
X2045716Y7113270D01*
X2047493Y7099909D01*
X2051050Y7086955D01*
X2056333Y7074509D01*
X2063191Y7062927D01*
X2071522Y7052360D01*
X2081225Y7043013D01*
X2092045Y7035038D01*
X2102002Y7029602D01*
X2105304Y7026656D01*
X2107082Y7022592D01*
X2106930Y7018172D01*
X2104948Y7014209D01*
X2101443Y7011466D01*
X2097125Y7010501D01*
X1941372Y7010501D01*
X1937512Y7011263D01*
X1934260Y7013397D01*
X1932025Y7016597D01*
X1931212Y7020407D01*
X1931873Y7024268D01*
X1933905Y7027570D01*
X1937054Y7029907D01*
X1940763Y7031583D01*
X1952091Y7038848D01*
X1962404Y7047534D01*
X1971395Y7057542D01*
X1979066Y7068616D01*
X1985111Y7080656D01*
X1989531Y7093356D01*
X1992223Y7106564D01*
X1993138Y7119975D01*
X1992223Y7133437D01*
X1989531Y7146645D01*
X1985111Y7159345D01*
X1979066Y7171385D01*
X1971395Y7182459D01*
X1962404Y7192467D01*
X1952091Y7201153D01*
X1940763Y7208418D01*
X1928520Y7214057D01*
X1915668Y7218070D01*
X1902409Y7220305D01*
X1888947Y7220762D01*
X1875536Y7219391D01*
X1862429Y7216292D01*
X1849882Y7211466D01*
X1838045Y7204964D01*
X1827225Y7196988D01*
X1817522Y7187641D01*
X1809191Y7177074D01*
X1802333Y7165492D01*
X1797050Y7153046D01*
X1793493Y7140092D01*
X1791716Y7126731D01*
X1791716Y7113270D01*
X1793493Y7099909D01*
X1797050Y7086955D01*
X1802333Y7074509D01*
X1809191Y7062927D01*
X1817522Y7052360D01*
X1827225Y7043013D01*
X1838045Y7035038D01*
X1848002Y7029602D01*
X1851304Y7026656D01*
X1853082Y7022592D01*
X1852930Y7018172D01*
X1850948Y7014209D01*
X1847443Y7011466D01*
X1843125Y7010501D01*
X1687372Y7010501D01*
X1683512Y7011263D01*
X1680260Y7013397D01*
X1678025Y7016597D01*
X1677212Y7020407D01*
X1677873Y7024268D01*
X1679905Y7027570D01*
X1683054Y7029907D01*
X1686763Y7031583D01*
X1698091Y7038848D01*
X1708404Y7047534D01*
X1717395Y7057542D01*
X1725066Y7068616D01*
X1731111Y7080656D01*
X1735531Y7093356D01*
X1738223Y7106564D01*
X1739138Y7119975D01*
X1738223Y7133437D01*
X1735531Y7146645D01*
X1731111Y7159345D01*
X1725066Y7171385D01*
X1717395Y7182459D01*
X1708404Y7192467D01*
X1698091Y7201153D01*
X1686763Y7208418D01*
X1674520Y7214057D01*
X1661668Y7218070D01*
X1648409Y7220305D01*
X1634947Y7220762D01*
X1621536Y7219391D01*
X1608429Y7216292D01*
X1595882Y7211466D01*
X1584045Y7204964D01*
X1573225Y7196988D01*
X1563522Y7187641D01*
X1555191Y7177074D01*
X1548333Y7165492D01*
X1543050Y7153046D01*
X1539494Y7140092D01*
X1537716Y7126731D01*
X1537716Y7113270D01*
X1539494Y7099909D01*
X1543050Y7086955D01*
X1548333Y7074509D01*
X1555191Y7062927D01*
X1563522Y7052360D01*
X1573225Y7043013D01*
X1584045Y7035038D01*
X1594002Y7029602D01*
X1597304Y7026656D01*
X1599082Y7022592D01*
X1598930Y7018172D01*
X1596948Y7014209D01*
X1593443Y7011466D01*
X1589125Y7010501D01*
X1569872Y7010501D01*
X1565960Y7011263D01*
X1562709Y7013498D01*
X1488135Y7088073D01*
X1485900Y7091375D01*
X1485138Y7095236D01*
X1485138Y7194346D01*
X1484426Y7200696D01*
X1482496Y7206132D01*
X1479448Y7211059D01*
X1475333Y7215124D01*
X1470456Y7218222D01*
X1464970Y7220102D01*
X1458671Y7220813D01*
X1309928Y7220813D01*
X1303629Y7220102D01*
X1298143Y7218222D01*
X1293266Y7215124D01*
X1289151Y7211059D01*
X1286103Y7206132D01*
X1284173Y7200696D01*
X1283462Y7194346D01*
X1283462Y7045655D01*
X1284173Y7039305D01*
X1286103Y7033869D01*
X1289151Y7028942D01*
X1293266Y7024878D01*
X1298143Y7021779D01*
X1303629Y7019848D01*
X1309928Y7019137D01*
X1408785Y7019137D01*
X1412697Y7018375D01*
X1415999Y7016191D01*
X1508404Y6923735D01*
X1511858Y6920585D01*
X1515364Y6917893D01*
X1519123Y6915505D01*
X1523085Y6913473D01*
X1527149Y6911746D01*
X1531416Y6910425D01*
X1535734Y6909460D01*
X1540154Y6908901D01*
G37*
G36*
X4224832Y7050125D02*
G01*
X4239361Y7050125D01*
X4253788Y7051954D01*
X4267911Y7055561D01*
X4281424Y7060946D01*
X4294174Y7067956D01*
X4305960Y7076490D01*
X4316577Y7086447D01*
X4325874Y7097674D01*
X4333646Y7109968D01*
X4339844Y7123125D01*
X4344365Y7136993D01*
X4347057Y7151268D01*
X4347972Y7165797D01*
X4347057Y7180325D01*
X4344365Y7194600D01*
X4339844Y7208469D01*
X4333646Y7221626D01*
X4325874Y7233920D01*
X4316577Y7245146D01*
X4305960Y7255103D01*
X4294174Y7263638D01*
X4281424Y7270648D01*
X4267911Y7276033D01*
X4253788Y7279640D01*
X4239361Y7281468D01*
X4224832Y7281468D01*
X4210405Y7279640D01*
X4196283Y7276033D01*
X4182770Y7270648D01*
X4170019Y7263638D01*
X4158234Y7255103D01*
X4147616Y7245146D01*
X4138320Y7233920D01*
X4130548Y7221626D01*
X4124350Y7208469D01*
X4119829Y7194600D01*
X4117136Y7180325D01*
X4116222Y7165797D01*
X4117136Y7151268D01*
X4119829Y7136993D01*
X4124350Y7123125D01*
X4130548Y7109968D01*
X4138320Y7097674D01*
X4147616Y7086447D01*
X4158234Y7076490D01*
X4170019Y7067956D01*
X4182770Y7060946D01*
X4196283Y7055561D01*
X4210405Y7051954D01*
G37*
G36*
X3970832Y7050125D02*
G01*
X3985361Y7050125D01*
X3999788Y7051954D01*
X4013911Y7055561D01*
X4027424Y7060946D01*
X4040174Y7067956D01*
X4051960Y7076490D01*
X4062577Y7086447D01*
X4071874Y7097674D01*
X4079646Y7109968D01*
X4085844Y7123125D01*
X4090365Y7136993D01*
X4093057Y7151268D01*
X4093972Y7165797D01*
X4093057Y7180325D01*
X4090365Y7194600D01*
X4085844Y7208469D01*
X4079646Y7221626D01*
X4071874Y7233920D01*
X4062577Y7245146D01*
X4051960Y7255103D01*
X4040174Y7263638D01*
X4027424Y7270648D01*
X4013911Y7276033D01*
X3999788Y7279640D01*
X3985361Y7281468D01*
X3970832Y7281468D01*
X3956405Y7279640D01*
X3942283Y7276033D01*
X3928770Y7270648D01*
X3916019Y7263638D01*
X3904234Y7255103D01*
X3893616Y7245146D01*
X3884320Y7233920D01*
X3876548Y7221626D01*
X3870350Y7208469D01*
X3865829Y7194600D01*
X3863136Y7180325D01*
X3862222Y7165797D01*
X3863136Y7151268D01*
X3865829Y7136993D01*
X3870350Y7123125D01*
X3876548Y7109968D01*
X3884320Y7097674D01*
X3893616Y7086447D01*
X3904234Y7076490D01*
X3916019Y7067956D01*
X3928770Y7060946D01*
X3942283Y7055561D01*
X3956405Y7051954D01*
G37*
G36*
X3716832Y7050125D02*
G01*
X3731361Y7050125D01*
X3745788Y7051954D01*
X3759911Y7055561D01*
X3773424Y7060946D01*
X3786174Y7067956D01*
X3797960Y7076490D01*
X3808577Y7086447D01*
X3817874Y7097674D01*
X3825646Y7109968D01*
X3831844Y7123125D01*
X3836365Y7136993D01*
X3839057Y7151268D01*
X3839972Y7165797D01*
X3839057Y7180325D01*
X3836365Y7194600D01*
X3831844Y7208469D01*
X3825646Y7221626D01*
X3817874Y7233920D01*
X3808577Y7245146D01*
X3797960Y7255103D01*
X3786174Y7263638D01*
X3773424Y7270648D01*
X3759911Y7276033D01*
X3745788Y7279640D01*
X3731361Y7281468D01*
X3716832Y7281468D01*
X3702405Y7279640D01*
X3688283Y7276033D01*
X3674770Y7270648D01*
X3662019Y7263638D01*
X3650234Y7255103D01*
X3639616Y7245146D01*
X3630320Y7233920D01*
X3622548Y7221626D01*
X3616350Y7208469D01*
X3611829Y7194600D01*
X3609136Y7180325D01*
X3608222Y7165797D01*
X3609136Y7151268D01*
X3611829Y7136993D01*
X3616350Y7123125D01*
X3622548Y7109968D01*
X3630320Y7097674D01*
X3639616Y7086447D01*
X3650234Y7076490D01*
X3662019Y7067956D01*
X3674770Y7060946D01*
X3688283Y7055561D01*
X3702405Y7051954D01*
G37*
G36*
X4478832Y7050125D02*
G01*
X4493361Y7050125D01*
X4507788Y7051954D01*
X4521911Y7055561D01*
X4535424Y7060946D01*
X4548174Y7067956D01*
X4559960Y7076490D01*
X4570577Y7086447D01*
X4579874Y7097674D01*
X4587646Y7109968D01*
X4593844Y7123125D01*
X4598365Y7136993D01*
X4601057Y7151268D01*
X4601972Y7165797D01*
X4601057Y7180325D01*
X4598365Y7194600D01*
X4593844Y7208469D01*
X4587646Y7221626D01*
X4579874Y7233920D01*
X4570577Y7245146D01*
X4559960Y7255103D01*
X4548174Y7263638D01*
X4535424Y7270648D01*
X4521911Y7276033D01*
X4507788Y7279640D01*
X4493361Y7281468D01*
X4478832Y7281468D01*
X4464405Y7279640D01*
X4450283Y7276033D01*
X4436770Y7270648D01*
X4424019Y7263638D01*
X4412234Y7255103D01*
X4401616Y7245146D01*
X4392320Y7233920D01*
X4384548Y7221626D01*
X4378350Y7208469D01*
X4373829Y7194600D01*
X4371136Y7180325D01*
X4370222Y7165797D01*
X4371136Y7151268D01*
X4373829Y7136993D01*
X4378350Y7123125D01*
X4384548Y7109968D01*
X4392320Y7097674D01*
X4401616Y7086447D01*
X4412234Y7076490D01*
X4424019Y7067956D01*
X4436770Y7060946D01*
X4450283Y7055561D01*
X4464405Y7051954D01*
G37*
G36*
X2910738Y7062063D02*
G01*
X2910738Y7114438D01*
X2858414Y7114438D01*
X2860548Y7109968D01*
X2868320Y7097674D01*
X2877616Y7086447D01*
X2888234Y7076490D01*
X2900019Y7067956D01*
G37*
G36*
X3013456Y7217156D02*
G01*
X3065780Y7217156D01*
X3063646Y7221626D01*
X3055874Y7233920D01*
X3046577Y7245146D01*
X3035960Y7255103D01*
X3024174Y7263638D01*
X3013456Y7269581D01*
G37*
G36*
X2858414Y7217156D02*
G01*
X2910738Y7217156D01*
X2910738Y7269581D01*
X2900019Y7263638D01*
X2888234Y7255103D01*
X2877616Y7245146D01*
X2868320Y7233920D01*
X2860548Y7221626D01*
G37*
G36*
X2615692Y8213902D02*
G01*
X2794508Y8213902D01*
X2800858Y8214614D01*
X2806293Y8216493D01*
X2811221Y8219592D01*
X2815285Y8223707D01*
X2818384Y8228584D01*
X2820314Y8234070D01*
X2821025Y8240369D01*
X2821025Y8419236D01*
X2820314Y8425535D01*
X2818384Y8431022D01*
X2815285Y8435898D01*
X2811221Y8440013D01*
X2806293Y8443061D01*
X2800858Y8444992D01*
X2794508Y8445703D01*
X2615692Y8445703D01*
X2609342Y8444992D01*
X2603906Y8443061D01*
X2598978Y8440013D01*
X2594914Y8435898D01*
X2591816Y8431022D01*
X2589885Y8425535D01*
X2589174Y8419236D01*
X2589174Y8240369D01*
X2589885Y8234070D01*
X2591816Y8228584D01*
X2594914Y8223707D01*
X2598978Y8219592D01*
X2603906Y8216493D01*
X2609342Y8214614D01*
G37*
G36*
X3205835Y8214156D02*
G01*
X3220364Y8214156D01*
X3234791Y8215985D01*
X3248914Y8219592D01*
X3262426Y8224926D01*
X3275177Y8231936D01*
X3286963Y8240522D01*
X3297580Y8250478D01*
X3306876Y8261705D01*
X3314649Y8273948D01*
X3320846Y8287156D01*
X3325368Y8300974D01*
X3328060Y8315248D01*
X3328974Y8329777D01*
X3328060Y8344306D01*
X3325368Y8358631D01*
X3320846Y8372449D01*
X3314649Y8385606D01*
X3306876Y8397900D01*
X3297580Y8409127D01*
X3286963Y8419084D01*
X3275177Y8427669D01*
X3262426Y8434679D01*
X3248914Y8440013D01*
X3234791Y8443620D01*
X3220364Y8445449D01*
X3205835Y8445449D01*
X3191408Y8443620D01*
X3177286Y8440013D01*
X3163773Y8434679D01*
X3151022Y8427669D01*
X3139236Y8419084D01*
X3128619Y8409127D01*
X3119323Y8397900D01*
X3111550Y8385606D01*
X3105353Y8372449D01*
X3100832Y8358631D01*
X3098139Y8344306D01*
X3097225Y8329777D01*
X3098139Y8315248D01*
X3100832Y8300974D01*
X3105353Y8287156D01*
X3111550Y8273948D01*
X3119323Y8261705D01*
X3128619Y8250478D01*
X3139236Y8240522D01*
X3151022Y8231936D01*
X3163773Y8224926D01*
X3177286Y8219592D01*
X3191408Y8215985D01*
G37*
G36*
X3967835Y8214156D02*
G01*
X3982364Y8214156D01*
X3996791Y8215985D01*
X4010914Y8219592D01*
X4024426Y8224926D01*
X4037177Y8231936D01*
X4048963Y8240522D01*
X4059580Y8250478D01*
X4068876Y8261705D01*
X4076649Y8273948D01*
X4082846Y8287156D01*
X4087368Y8300974D01*
X4090060Y8315248D01*
X4090974Y8329777D01*
X4090060Y8344306D01*
X4087368Y8358631D01*
X4082846Y8372449D01*
X4076649Y8385606D01*
X4068876Y8397900D01*
X4059580Y8409127D01*
X4048963Y8419084D01*
X4037177Y8427669D01*
X4024426Y8434679D01*
X4010914Y8440013D01*
X3996791Y8443620D01*
X3982364Y8445449D01*
X3967835Y8445449D01*
X3953408Y8443620D01*
X3939286Y8440013D01*
X3925773Y8434679D01*
X3913022Y8427669D01*
X3901236Y8419084D01*
X3890619Y8409127D01*
X3881323Y8397900D01*
X3873550Y8385606D01*
X3867353Y8372449D01*
X3862832Y8358631D01*
X3860139Y8344306D01*
X3859225Y8329777D01*
X3860139Y8315248D01*
X3862832Y8300974D01*
X3867353Y8287156D01*
X3873550Y8273948D01*
X3881323Y8261705D01*
X3890619Y8250478D01*
X3901236Y8240522D01*
X3913022Y8231936D01*
X3925773Y8224926D01*
X3939286Y8219592D01*
X3953408Y8215985D01*
G37*
G36*
X3459835Y8214156D02*
G01*
X3474364Y8214156D01*
X3488791Y8215985D01*
X3502914Y8219592D01*
X3516426Y8224926D01*
X3529177Y8231936D01*
X3540963Y8240522D01*
X3551580Y8250478D01*
X3560876Y8261705D01*
X3568649Y8273948D01*
X3574846Y8287156D01*
X3579368Y8300974D01*
X3582060Y8315248D01*
X3582974Y8329777D01*
X3582060Y8344306D01*
X3579368Y8358631D01*
X3574846Y8372449D01*
X3568649Y8385606D01*
X3560876Y8397900D01*
X3551580Y8409127D01*
X3540963Y8419084D01*
X3529177Y8427669D01*
X3516426Y8434679D01*
X3502914Y8440013D01*
X3488791Y8443620D01*
X3474364Y8445449D01*
X3459835Y8445449D01*
X3445408Y8443620D01*
X3431286Y8440013D01*
X3417773Y8434679D01*
X3405022Y8427669D01*
X3393236Y8419084D01*
X3382619Y8409127D01*
X3373323Y8397900D01*
X3365550Y8385606D01*
X3359353Y8372449D01*
X3354832Y8358631D01*
X3352139Y8344306D01*
X3351225Y8329777D01*
X3352139Y8315248D01*
X3354832Y8300974D01*
X3359353Y8287156D01*
X3365550Y8273948D01*
X3373323Y8261705D01*
X3382619Y8250478D01*
X3393236Y8240522D01*
X3405022Y8231936D01*
X3417773Y8224926D01*
X3431286Y8219592D01*
X3445408Y8215985D01*
G37*
G36*
X2951835Y8214156D02*
G01*
X2966364Y8214156D01*
X2980791Y8215985D01*
X2994914Y8219592D01*
X3008426Y8224926D01*
X3021177Y8231936D01*
X3032963Y8240522D01*
X3043580Y8250478D01*
X3052876Y8261705D01*
X3060649Y8273948D01*
X3066846Y8287156D01*
X3071368Y8300974D01*
X3074060Y8315248D01*
X3074974Y8329777D01*
X3074060Y8344306D01*
X3071368Y8358631D01*
X3066846Y8372449D01*
X3060649Y8385606D01*
X3052876Y8397900D01*
X3043580Y8409127D01*
X3032963Y8419084D01*
X3021177Y8427669D01*
X3008426Y8434679D01*
X2994914Y8440013D01*
X2980791Y8443620D01*
X2966364Y8445449D01*
X2951835Y8445449D01*
X2937408Y8443620D01*
X2923286Y8440013D01*
X2909773Y8434679D01*
X2897022Y8427669D01*
X2885236Y8419084D01*
X2874619Y8409127D01*
X2865323Y8397900D01*
X2857550Y8385606D01*
X2851353Y8372449D01*
X2846832Y8358631D01*
X2844139Y8344306D01*
X2843225Y8329777D01*
X2844139Y8315248D01*
X2846832Y8300974D01*
X2851353Y8287156D01*
X2857550Y8273948D01*
X2865323Y8261705D01*
X2874619Y8250478D01*
X2885236Y8240522D01*
X2897022Y8231936D01*
X2909773Y8224926D01*
X2923286Y8219592D01*
X2937408Y8215985D01*
G37*
G36*
X4221835Y8214156D02*
G01*
X4236364Y8214156D01*
X4250791Y8215985D01*
X4264914Y8219592D01*
X4278426Y8224926D01*
X4291177Y8231936D01*
X4302963Y8240522D01*
X4313580Y8250478D01*
X4322876Y8261705D01*
X4330649Y8273948D01*
X4336846Y8287156D01*
X4341368Y8300974D01*
X4344060Y8315248D01*
X4344974Y8329777D01*
X4344060Y8344306D01*
X4341368Y8358631D01*
X4336846Y8372449D01*
X4330649Y8385606D01*
X4322876Y8397900D01*
X4313580Y8409127D01*
X4302963Y8419084D01*
X4291177Y8427669D01*
X4278426Y8434679D01*
X4264914Y8440013D01*
X4250791Y8443620D01*
X4236364Y8445449D01*
X4221835Y8445449D01*
X4207408Y8443620D01*
X4193286Y8440013D01*
X4179773Y8434679D01*
X4167022Y8427669D01*
X4155236Y8419084D01*
X4144619Y8409127D01*
X4135323Y8397900D01*
X4127550Y8385606D01*
X4121353Y8372449D01*
X4116832Y8358631D01*
X4114139Y8344306D01*
X4113225Y8329777D01*
X4114139Y8315248D01*
X4116832Y8300974D01*
X4121353Y8287156D01*
X4127550Y8273948D01*
X4135323Y8261705D01*
X4144619Y8250478D01*
X4155236Y8240522D01*
X4167022Y8231936D01*
X4179773Y8224926D01*
X4193286Y8219592D01*
X4207408Y8215985D01*
G37*
G36*
X3713835Y8214156D02*
G01*
X3728364Y8214156D01*
X3742791Y8215985D01*
X3756914Y8219592D01*
X3770426Y8224926D01*
X3783177Y8231936D01*
X3794963Y8240522D01*
X3805580Y8250478D01*
X3814876Y8261705D01*
X3822649Y8273948D01*
X3828846Y8287156D01*
X3833368Y8300974D01*
X3836060Y8315248D01*
X3836974Y8329777D01*
X3836060Y8344306D01*
X3833368Y8358631D01*
X3828846Y8372449D01*
X3822649Y8385606D01*
X3814876Y8397900D01*
X3805580Y8409127D01*
X3794963Y8419084D01*
X3783177Y8427669D01*
X3770426Y8434679D01*
X3756914Y8440013D01*
X3742791Y8443620D01*
X3728364Y8445449D01*
X3713835Y8445449D01*
X3699408Y8443620D01*
X3685286Y8440013D01*
X3671773Y8434679D01*
X3659022Y8427669D01*
X3647236Y8419084D01*
X3636619Y8409127D01*
X3627323Y8397900D01*
X3619550Y8385606D01*
X3613353Y8372449D01*
X3608832Y8358631D01*
X3606139Y8344306D01*
X3605225Y8329777D01*
X3606139Y8315248D01*
X3608832Y8300974D01*
X3613353Y8287156D01*
X3619550Y8273948D01*
X3627323Y8261705D01*
X3636619Y8250478D01*
X3647236Y8240522D01*
X3659022Y8231936D01*
X3671773Y8224926D01*
X3685286Y8219592D01*
X3699408Y8215985D01*
G37*
G36*
X4475835Y8214156D02*
G01*
X4490364Y8214156D01*
X4504791Y8215985D01*
X4518914Y8219592D01*
X4532426Y8224926D01*
X4545177Y8231936D01*
X4556963Y8240522D01*
X4567580Y8250478D01*
X4576876Y8261705D01*
X4584649Y8273948D01*
X4590846Y8287156D01*
X4595368Y8300974D01*
X4598060Y8315248D01*
X4598974Y8329777D01*
X4598060Y8344306D01*
X4595368Y8358631D01*
X4590846Y8372449D01*
X4584649Y8385606D01*
X4576876Y8397900D01*
X4567580Y8409127D01*
X4556963Y8419084D01*
X4545177Y8427669D01*
X4532426Y8434679D01*
X4518914Y8440013D01*
X4504791Y8443620D01*
X4490364Y8445449D01*
X4475835Y8445449D01*
X4461408Y8443620D01*
X4447286Y8440013D01*
X4433773Y8434679D01*
X4421022Y8427669D01*
X4409236Y8419084D01*
X4398619Y8409127D01*
X4389323Y8397900D01*
X4381550Y8385606D01*
X4375353Y8372449D01*
X4370832Y8358631D01*
X4368139Y8344306D01*
X4367225Y8329777D01*
X4368139Y8315248D01*
X4370832Y8300974D01*
X4375353Y8287156D01*
X4381550Y8273948D01*
X4389323Y8261705D01*
X4398619Y8250478D01*
X4409236Y8240522D01*
X4421022Y8231936D01*
X4433773Y8224926D01*
X4447286Y8219592D01*
X4461408Y8215985D01*
G37*
G36*
X1943404Y8284921D02*
G01*
X1953869Y8290610D01*
X1964689Y8298586D01*
X1974392Y8307984D01*
X1982724Y8318550D01*
X1989582Y8330133D01*
X1990293Y8331758D01*
X1943404Y8331758D01*
G37*
G36*
X1855774Y8285022D02*
G01*
X1855774Y8331758D01*
X1809038Y8331758D01*
X1812848Y8324240D01*
X1820468Y8313115D01*
X1829511Y8303107D01*
X1839823Y8294420D01*
X1851152Y8287207D01*
G37*
G36*
X1943404Y8419388D02*
G01*
X1990293Y8419388D01*
X1989582Y8421065D01*
X1982724Y8432647D01*
X1974392Y8443214D01*
X1964689Y8452612D01*
X1953869Y8460587D01*
X1946859Y8464397D01*
X1943404Y8467547D01*
G37*
G36*
X1809038Y8419388D02*
G01*
X1855774Y8419388D01*
X1855774Y8468410D01*
X1854555Y8466429D01*
X1851152Y8463991D01*
X1839823Y8456777D01*
X1829511Y8448090D01*
X1820468Y8438083D01*
X1812848Y8426958D01*
G37*

%LPD*%
D11*
X1391665Y8375650D02*
G01*
X1550415Y8534400D01*
X2324100Y8534400D01*
X2413000Y8445500D01*
X2413000Y8222995D01*
X3470147Y7165847D01*
X1384300Y7119873D02*
G01*
X1544573Y6959600D01*
X3009900Y6959600D01*
X3216147Y7165847D01*
X2153665Y8375650D02*
G01*
X2153665Y8209534D01*
X2708147Y7655052D01*
X2708147Y7165847D01*
D12*
G01*
X2153615Y8375596D03*
G01*
X1899615Y8375596D03*
G01*
X1645615Y8375596D03*
G01*
X1391615Y8375596D03*
G36*
X1309370Y7194928D02*
G01*
X1459229Y7194928D01*
X1459229Y7045068D01*
X1309370Y7045068D01*
G37*
G01*
X1638300Y7119998D03*
G01*
X1892300Y7119998D03*
G01*
X2146300Y7119998D03*
D14*
G01*
X4486097Y7165797D03*
G01*
X4232097Y7165797D03*
G01*
X3978097Y7165797D03*
G01*
X3724097Y7165797D03*
G01*
X3470097Y7165797D03*
G01*
X3216097Y7165797D03*
G01*
X2962097Y7165797D03*
G36*
X2618097Y7255802D02*
G01*
X2798097Y7255802D01*
X2798097Y7075802D01*
X2618097Y7075802D01*
G37*
D15*
G01*
X2705100Y8329803D03*
D14*
G01*
X2959100Y8329803D03*
G01*
X3213100Y8329803D03*
G01*
X3467100Y8329803D03*
G01*
X3721100Y8329803D03*
G01*
X3975100Y8329803D03*
G01*
X4229100Y8329803D03*
G01*
X4483100Y8329803D03*
M02*
